<svg width="375" height="150" viewBox="0 0 375 150" fill="none" xmlns="http://www.w3.org/2000/svg">
<path d="M50.6009 3.66661C45.9342 10.4666 47.4009 14.5999 59.0009 26.9999C66.0675 34.4666 70.0675 39.7999 70.6009 42.5999L71.4009 46.7333L73.9342 43.7999C78.0675 38.5999 76.4675 31.6666 69.6675 24.9999C59.5342 14.8666 54.6009 8.59994 53.8009 4.86661L52.8675 0.466607L50.6009 3.66661Z" fill="black"/>
<path d="M27.934 11.7999C23.0007 18.3332 20.334 25.2666 20.334 31.9332C20.334 43.3999 25.934 50.4666 59.2673 81.2666C74.4673 95.3999 79.0007 101.533 79.0007 108.2C79.0007 112.733 80.2007 112.6 85.6673 107C89.2673 103.267 90.2007 101.133 90.734 95.2666C91.6673 83.9332 89.134 80.0666 64.2007 55.6666C39.534 31.3999 35.134 25.6666 33.0007 14.5999L31.534 7.13324L27.934 11.7999Z" fill="black"/>
<path d="M6.06732 43.9333C1.66732 48.8667 0.333984 52.4667 0.333984 59.2667C0.333984 68.7333 4.73398 74.6 27.534 96.3333C49.8007 117.533 57.0007 126.867 58.334 137C59.2673 143.533 59.4007 143.8 61.8007 141.533C65.934 137.8 71.0007 126.2 71.0007 120.333C71.0007 110.467 65.534 102.333 48.4673 86.6C20.4673 60.8667 15.534 55.4 12.8673 47.9333C11.534 44.0667 10.0673 41 9.53398 41C9.13398 41 7.53398 42.3333 6.06732 43.9333Z" fill="#FF0000"/>
<path d="M121.668 70.9999V94.3333H127.001H132.335V84.9999V75.6666H139.668H147.001V70.9999V66.3333H139.668H132.335V61.6666V56.9999H142.335H152.335V52.3332V47.6666H137.001H121.668V70.9999Z" fill="black"/>
<path d="M245.933 48.5999C246.2 49.2666 249.8 56.4666 254.067 64.5999C260.6 77.5333 261.667 80.5999 261.667 86.9999V94.3333H267H272.333V86.5999C272.333 79.6666 273.267 77.1333 280.467 63.2666L288.467 47.6666H282.333H276.067L271.933 56.9999C269.667 62.0666 267.4 66.3333 267 66.3333C266.6 66.3333 264.333 62.0666 262.067 56.9999L257.933 47.6666H251.667C248.2 47.6666 245.667 48.0666 245.933 48.5999Z" fill="black"/>
<path d="M167.134 59.4C155.268 65.4 154.601 84.6 165.934 91.6667C169.401 93.9333 171.934 94.3333 178.201 93.9333C185.268 93.5333 186.468 93 190.468 88.6C194.868 83.8 195.801 80.8667 195.134 72.3333C194.201 60.2 179.134 53.1333 167.134 59.4ZM181.934 68.6C185.001 71.2667 185.134 79.2667 182.068 82.6C179.401 85.5333 173.268 85.6667 170.868 82.8667C168.068 79.5333 168.601 70.4667 171.668 68.2C175.001 65.6667 178.868 65.8 181.934 68.6Z" fill="black"/>
<path d="M203.933 57.9333C203.4 58.3333 203 66.7333 203 76.5999V94.3333H209H215V83.2666C215 71.1333 216.067 68.9999 221.933 68.9999C225.533 68.9999 225.667 68.7333 225.667 62.9999C225.667 56.1999 224.067 55.3999 218.467 59.7999L215 62.4666V59.7999C215 57.3999 214.2 56.9999 209.933 56.9999C207.133 56.9999 204.333 57.3999 203.933 57.9333Z" fill="black"/>
<path d="M304.334 57.9333C300.601 59.2666 295.001 65.3999 293.534 69.9333C290.867 78.1999 294.867 88.7333 302.201 92.1999C311.934 96.8666 323.934 93.5333 328.601 84.8666C335.534 71.9333 326.334 56.8666 311.667 57.1333C308.734 57.1333 305.401 57.5333 304.334 57.9333ZM316.867 68.4666C321.134 72.7333 320.601 80.7333 315.801 83.9333C313.267 85.6666 308.601 85.1333 306.467 82.8666C303.667 80.1999 303.801 71.7999 306.601 68.7333C309.267 65.7999 314.067 65.6666 316.867 68.4666Z" fill="black"/>
<path d="M339 71.8C339 86.3333 339 86.6 342.867 90.4666C347.267 94.8666 355.267 95.8 359.8 92.3333C363.133 89.8 364.333 89.8 364.333 92.3333C364.333 93.8 365.8 94.3333 369.667 94.3333H375V75.6666V57H369.667H364.333V68.8666C364.333 82.0666 362.867 85 356.467 85C350.6 85 349.667 82.8666 349.667 69.4V57H344.333H339V71.8Z" fill="black"/>
<path d="M16.3347 107.533C14.2014 111.8 14.7347 117.533 17.9347 121.133C19.4014 122.867 23.9347 127.667 27.9347 131.8C31.9347 135.933 35.9347 141.533 37.0014 144.467L38.868 149.667L41.0014 144.467C43.668 138.2 42.468 134.467 35.4014 126.867C23.5347 113.933 20.3347 109.8 20.3347 107.533C20.3347 104.2 18.2014 104.333 16.3347 107.533Z" fill="#FF0000"/>
</svg>
