<svg width="414" height="191" viewBox="0 0 414 191" fill="none" xmlns="http://www.w3.org/2000/svg">
<path d="M83.6009 34.6666C78.9342 41.4666 80.4009 45.5999 92.0009 57.9999C99.0675 65.4666 103.068 70.7999 103.601 73.5999L104.401 77.7333L106.934 74.7999C111.068 69.5999 109.468 62.6666 102.668 55.9999C92.5342 45.8666 87.6009 39.5999 86.8009 35.8666L85.8675 31.4666L83.6009 34.6666Z" fill="black"/>
<path d="M60.934 42.7999C56.0007 49.3332 53.334 56.2666 53.334 62.9332C53.334 74.3999 58.934 81.4666 92.2673 112.267C107.467 126.4 112.001 132.533 112.001 139.2C112.001 143.733 113.201 143.6 118.667 138C122.267 134.267 123.201 132.133 123.734 126.267C124.667 114.933 122.134 111.067 97.2007 86.6666C72.534 62.3999 68.134 56.6666 66.0007 45.5999L64.534 38.1332L60.934 42.7999Z" fill="black"/>
<path d="M39.0673 74.9333C34.6673 79.8667 33.334 83.4667 33.334 90.2667C33.334 99.7333 37.734 105.6 60.534 127.333C82.8007 148.533 90.0007 157.867 91.334 168C92.2673 174.533 92.4007 174.8 94.8007 172.533C98.934 168.8 104.001 157.2 104.001 151.333C104.001 141.467 98.534 133.333 81.4673 117.6C53.4673 91.8667 48.534 86.4 45.8673 78.9333C44.534 75.0667 43.0673 72 42.534 72C42.134 72 40.534 73.3333 39.0673 74.9333Z" fill="#FF0000"/>
<path d="M154.668 102V125.333H160.001H165.335V116V106.667H172.668H180.001V102V97.3333H172.668H165.335V92.6666V87.9999H175.335H185.335V83.3332V78.6666H170.001H154.668V102Z" fill="black"/>
<path d="M278.933 79.5999C279.2 80.2666 282.8 87.4666 287.067 95.5999C293.6 108.533 294.667 111.6 294.667 118V125.333H300H305.333V117.6C305.333 110.667 306.267 108.133 313.467 94.2666L321.467 78.6666H315.333H309.067L304.933 87.9999C302.667 93.0666 300.4 97.3333 300 97.3333C299.6 97.3333 297.333 93.0666 295.067 87.9999L290.933 78.6666H284.667C281.2 78.6666 278.667 79.0666 278.933 79.5999Z" fill="black"/>
<path d="M200.134 90.4C188.268 96.4 187.601 115.6 198.934 122.667C202.401 124.933 204.934 125.333 211.201 124.933C218.268 124.533 219.468 124 223.468 119.6C227.868 114.8 228.801 111.867 228.134 103.333C227.201 91.2 212.134 84.1333 200.134 90.4ZM214.934 99.6C218.001 102.267 218.134 110.267 215.068 113.6C212.401 116.533 206.268 116.667 203.868 113.867C201.068 110.533 201.601 101.467 204.668 99.2C208.001 96.6667 211.868 96.8 214.934 99.6Z" fill="black"/>
<path d="M236.933 88.9333C236.4 89.3333 236 97.7333 236 107.6V125.333H242H248V114.267C248 102.133 249.067 99.9999 254.933 99.9999C258.533 99.9999 258.667 99.7333 258.667 93.9999C258.667 87.1999 257.067 86.3999 251.467 90.7999L248 93.4666V90.7999C248 88.3999 247.2 87.9999 242.933 87.9999C240.133 87.9999 237.333 88.3999 236.933 88.9333Z" fill="black"/>
<path d="M337.334 88.9333C333.601 90.2666 328.001 96.3999 326.534 100.933C323.867 109.2 327.867 119.733 335.201 123.2C344.934 127.867 356.934 124.533 361.601 115.867C368.534 102.933 359.334 87.8666 344.667 88.1333C341.734 88.1333 338.401 88.5333 337.334 88.9333ZM349.867 99.4666C354.134 103.733 353.601 111.733 348.801 114.933C346.267 116.667 341.601 116.133 339.467 113.867C336.667 111.2 336.801 102.8 339.601 99.7333C342.267 96.7999 347.067 96.6666 349.867 99.4666Z" fill="black"/>
<path d="M372 102.8C372 117.333 372 117.6 375.867 121.467C380.267 125.867 388.267 126.8 392.8 123.333C396.133 120.8 397.333 120.8 397.333 123.333C397.333 124.8 398.8 125.333 402.667 125.333H408V106.667V88H402.667H397.333V99.8666C397.333 113.067 395.867 116 389.467 116C383.6 116 382.667 113.867 382.667 100.4V88H377.333H372V102.8Z" fill="black"/>
<path d="M49.3347 138.533C47.2014 142.8 47.7347 148.533 50.9347 152.133C52.4014 153.867 56.9347 158.667 60.9347 162.8C64.9347 166.933 68.9347 172.533 70.0014 175.467L71.868 180.667L74.0014 175.467C76.668 169.2 75.468 165.467 68.4014 157.867C56.5347 144.933 53.3347 140.8 53.3347 138.533C53.3347 135.2 51.2014 135.333 49.3347 138.533Z" fill="#FF0000"/>
</svg>
